<?xml version="1.0" standalone="no"?><!DOCTYPE svg PUBLIC "-//W3C//DTD SVG 1.1//EN" "http://www.w3.org/Graphics/SVG/1.1/DTD/svg11.dtd"><svg xmlns:xlink="http://www.w3.org/1999/xlink" version="1.1" style="font-family:'lucida grande', 'lucida sans unicode', arial, helvetica, sans-serif;font-size:12px;" xmlns="http://www.w3.org/2000/svg" width="600" height="400"><desc>Created with Highcharts 4.2.7</desc><defs><clipPath id="highcharts-17"><rect x="1" y="1" width="578" height="314"></rect></clipPath></defs><rect x="10" y="10" width="580" height="316" fill="#ffffff"></rect><rect x="10" y="10" width="580" height="316" stroke="#026fc1" stroke-width="2" fill="none"></rect><g class="highcharts-series-group"><g class="highcharts-series highcharts-series-0" transform="translate(10,10) scale(1 1)"><path fill="#50B432" d="M 289.97291146390853 10.000002758604495 A 133 133 0 0 1 420.26899933939455 116.18605192977309 L 290 143 A 0 0 0 0 0 290 143 Z" stroke="#FFFFFF" stroke-width="1" stroke-linejoin="round" transform="translate(0,0)"></path><path fill="#ED561B" d="M 420.2957481485015 116.3163343143739 A 133 133 0 0 1 323.2649470999635 271.77283601146877 L 290 143 A 0 0 0 0 0 290 143 Z" stroke="#FFFFFF" stroke-width="1" stroke-linejoin="round" transform="translate(0,0)"></path><path fill="#DDDF00" d="M 323.136157652942 271.80603656661197 A 133 133 0 0 1 296.3544913579411 275.8481104102797 L 290 143 A 0 0 0 0 0 290 143 Z" stroke="#FFFFFF" stroke-width="1" stroke-linejoin="round" transform="translate(0,0)"></path><path fill="#24CBE5" d="M 296.22164009242675 275.85439847652884 A 133 133 0 0 1 262.5085407238393 273.1277052240114 L 290 143 A 0 0 0 0 0 290 143 Z" stroke="#FFFFFF" stroke-width="1" stroke-linejoin="round" transform="translate(0,0)"></path><path fill="#64E572" d="M 262.37842678603175 273.1001487054699 A 133 133 0 0 1 164.24516760324545 186.2980614908355 L 290 143 A 0 0 0 0 0 290 143 Z" stroke="#FFFFFF" stroke-width="1" stroke-linejoin="round" transform="translate(0,0)"></path><path fill="#FF9655" d="M 164.20193242638192 186.17228503036893 A 133 133 0 0 1 162.7295741955399 181.61656012064535 L 290 143 A 0 0 0 0 0 290 143 Z" stroke="#FFFFFF" stroke-width="1" stroke-linejoin="round" transform="translate(0,0)"></path><path fill="#FFF263" d="M 162.69102127706296 181.4892704077742 A 133 133 0 0 1 289.81526566823646 10.000128296202206 L 290 143 A 0 0 0 0 0 290 143 Z" stroke="#FFFFFF" stroke-width="1" stroke-linejoin="round" transform="translate(0,0)"></path></g><g class="highcharts-markers highcharts-series-0" transform="translate(10,10) scale(1 1)"></g></g><g class="highcharts-data-labels highcharts-series-0" transform="translate(10,10) scale(1 1)" opacity="1"><path fill="none" d="M 398.0611702943636 16.717003608735226 C 393.0611702943636 16.717003608735226 388.002953347401 22.914942081926135 381.04790504532735 31.437107482563636 L 374.0928567432537 39.95927288320114" stroke="#50B432" stroke-width="1"></path><path fill="none" d="M 433.23858843385256 229.36603885680955 C 428.23858843385256 229.36603885680955 421.45387243709905 225.1272148638373 412.124887941563 219.29883187350046 L 402.7959034460269 213.4704488831636" stroke="#ED561B" stroke-width="1"></path><path fill="none" d="M 319.3093762059711 304.1770896513415 C 314.3093762059711 304.1770896513415 313.11627798727307 296.26655764391364 311.4757679365634 285.3895761337004 L 309.8352578858537 274.5125946234872" stroke="#DDDF00" stroke-width="1"></path><path fill="none" d="M 271.8128743907343 305.46568781796805 C 276.8128743907343 305.46568781796805 277.4600952795323 297.4919117287426 278.35002400163 286.52796960605764 L 279.2399527237277 275.5640274833727" stroke="#24CBE5" stroke-width="1"></path><path fill="none" d="M 176.9668923595338 265.05673948432116 C 181.9668923595338 265.05673948432116 187.26913077133588 259.0662246630048 194.55970858756365 250.82926678369478 L 201.85028640379142 242.59230890438477" stroke="#64E572" stroke-width="1"></path><path fill="none" d="M 129.89427860668582 193.11202641142745 C 134.89427860668582 193.11202641142745 142.506829349916 190.65254045258436 152.97408662185742 187.27074725917515 L 163.44134389379886 183.88895406576594" stroke="#FF9655" stroke-width="1"></path><path fill="none" d="M 154.10275869834825 45.866523692306984 C 159.10275869834825 45.866523692306984 165.52716317941093 50.63381087305265 174.3607193408721 57.18883074657795 L 183.19427550233326 63.743850620103245" stroke="#FFF263" stroke-width="1"></path><g style="cursor:pointer;" transform="translate(403,7)"><text x="5" style="font-size:10px;font-weight:bold;font-family:'arial', sans-serif;color:#000;text-shadow:none;fill:#000;text-rendering:geometricprecision;" y="15"><tspan>Spanish: 21.8%</tspan></text></g><g style="cursor:pointer;" transform="translate(438,219)"><text x="5" style="font-size:10px;font-weight:bold;font-family:'arial', sans-serif;color:#000;text-shadow:none;fill:#000;text-rendering:geometricprecision;" y="15"><tspan>French: 24.2%</tspan></text></g><g style="cursor:pointer;" transform="translate(324,294)"><text x="5" style="font-size:10px;font-weight:bold;font-family:'arial', sans-serif;color:#000;text-shadow:none;fill:#000;text-rendering:geometricprecision;" y="15"><tspan>Dutch: 3.3%</tspan></text></g><g style="cursor:pointer;" transform="translate(178,295)"><text x="5" style="font-size:10px;font-weight:bold;font-family:'arial', sans-serif;color:#000;text-shadow:none;fill:#000;text-rendering:geometricprecision;" y="15"><tspan>Hungarian: 4.1%</tspan></text></g><g style="cursor:pointer;" transform="translate(88,255)"><text x="5" style="font-size:10px;font-weight:bold;font-family:'arial', sans-serif;color:#000;text-shadow:none;fill:#000;text-rendering:geometricprecision;" y="15"><tspan>Russian: 16.4%</tspan></text></g><g style="cursor:pointer;" transform="translate(45,183)"><text x="5" style="font-size:10px;font-weight:bold;font-family:'arial', sans-serif;color:#000;text-shadow:none;fill:#000;text-rendering:geometricprecision;" y="15"><tspan>Swedish: 0.6%</tspan></text></g><g style="cursor:pointer;" transform="translate(67,36)"><text x="5" style="font-size:10px;font-weight:bold;font-family:'arial', sans-serif;color:#000;text-shadow:none;fill:#000;text-rendering:geometricprecision;" y="15"><tspan>German: 29.7%</tspan></text></g></g><g class="highcharts-legend" transform="translate(44,338)"><g><g><g class="highcharts-legend-item" transform="translate(8,3)"><text x="21" style="color:#333;font-size:9pt;font-weight:normal;cursor:pointer;font-family:'lucida grande','lucida sans unicode',arial,helvetica,sans-serif;text-transform:none;fill:#333;" text-anchor="start" y="15">Spanish</text><rect x="0" y="4" width="16" height="12" fill="#50B432"></rect></g><g class="highcharts-legend-item" transform="translate(94.125,3)"><text x="21" y="15" style="color:#333;font-size:9pt;font-weight:normal;cursor:pointer;font-family:'lucida grande','lucida sans unicode',arial,helvetica,sans-serif;text-transform:none;fill:#333;" text-anchor="start">French</text><rect x="0" y="4" width="16" height="12" fill="#ED561B"></rect></g><g class="highcharts-legend-item" transform="translate(174.203125,3)"><text x="21" y="15" style="color:#333;font-size:9pt;font-weight:normal;cursor:pointer;font-family:'lucida grande','lucida sans unicode',arial,helvetica,sans-serif;text-transform:none;fill:#333;" text-anchor="start">Dutch</text><rect x="0" y="4" width="16" height="12" fill="#DDDF00"></rect></g><g class="highcharts-legend-item" transform="translate(249.734375,3)"><text x="21" y="15" style="color:#333;font-size:9pt;font-weight:normal;cursor:pointer;font-family:'lucida grande','lucida sans unicode',arial,helvetica,sans-serif;text-transform:none;fill:#333;" text-anchor="start">Hungarian</text><rect x="0" y="4" width="16" height="12" fill="#24CBE5"></rect></g><g class="highcharts-legend-item" transform="translate(351.015625,3)"><text x="21" y="15" style="color:#333;font-size:9pt;font-weight:normal;cursor:pointer;font-family:'lucida grande','lucida sans unicode',arial,helvetica,sans-serif;text-transform:none;fill:#333;" text-anchor="start">Russian</text><rect x="0" y="4" width="16" height="12" fill="#64E572"></rect></g><g class="highcharts-legend-item" transform="translate(436.828125,3)"><text x="21" y="15" style="color:#333;font-size:9pt;font-weight:normal;cursor:pointer;font-family:'lucida grande','lucida sans unicode',arial,helvetica,sans-serif;text-transform:none;fill:#333;" text-anchor="start">Swedish</text><rect x="0" y="4" width="16" height="12" fill="#FF9655"></rect></g><g class="highcharts-legend-item" transform="translate(8,21)"><text x="21" y="15" style="color:#333;font-size:9pt;font-weight:normal;cursor:pointer;font-family:'lucida grande','lucida sans unicode',arial,helvetica,sans-serif;text-transform:none;fill:#333;" text-anchor="start">German</text><rect x="0" y="4" width="16" height="12" fill="#FFF263"></rect></g></g></g></g><g class="highcharts-tooltip" display="none" style="cursor:default;padding:0;pointer-events:none;white-space:nowrap;" transform="translate(0,0)"><path fill="none" d="M 3.5 0.5 L 13.5 0.5 C 16.5 0.5 16.5 0.5 16.5 3.5 L 16.5 13.5 C 16.5 16.5 16.5 16.5 13.5 16.5 L 3.5 16.5 C 0.5 16.5 0.5 16.5 0.5 13.5 L 0.5 3.5 C 0.5 0.5 0.5 0.5 3.5 0.5"  stroke="black" stroke-opacity="0.049999999999999996" stroke-width="5" transform="translate(1, 1)"></path><path fill="none" d="M 3.5 0.5 L 13.5 0.5 C 16.5 0.5 16.5 0.5 16.5 3.5 L 16.5 13.5 C 16.5 16.5 16.5 16.5 13.5 16.5 L 3.5 16.5 C 0.5 16.5 0.5 16.5 0.5 13.5 L 0.5 3.5 C 0.5 0.5 0.5 0.5 3.5 0.5"  stroke="black" stroke-opacity="0.09999999999999999" stroke-width="3" transform="translate(1, 1)"></path><path fill="none" d="M 3.5 0.5 L 13.5 0.5 C 16.5 0.5 16.5 0.5 16.5 3.5 L 16.5 13.5 C 16.5 16.5 16.5 16.5 13.5 16.5 L 3.5 16.5 C 0.5 16.5 0.5 16.5 0.5 13.5 L 0.5 3.5 C 0.5 0.5 0.5 0.5 3.5 0.5"  stroke="black" stroke-opacity="0.15" stroke-width="1" transform="translate(1, 1)"></path><path fill="rgb(249, 249, 249)" fill-opacity=" .85" d="M 3.5 0.5 L 13.5 0.5 C 16.5 0.5 16.5 0.5 16.5 3.5 L 16.5 13.5 C 16.5 16.5 16.5 16.5 13.5 16.5 L 3.5 16.5 C 0.5 16.5 0.5 16.5 0.5 13.5 L 0.5 3.5 C 0.5 0.5 0.5 0.5 3.5 0.5"></path><text x="8" style="font-size:12px;color:#000000;fill:#000000;" y="20"></text></g></svg>