<?xml version="1.0" standalone="no"?><!DOCTYPE svg PUBLIC "-//W3C//DTD SVG 1.1//EN" "http://www.w3.org/Graphics/SVG/1.1/DTD/svg11.dtd"><svg xmlns:xlink="http://www.w3.org/1999/xlink" version="1.1" style="font-family:'lucida grande', 'lucida sans unicode', arial, helvetica, sans-serif;font-size:12px;" xmlns="http://www.w3.org/2000/svg" width="600" height="400"><desc>Created with Highcharts 4.2.7</desc><defs><clipPath id="highcharts-9"><rect x="1" y="1" width="578" height="314"></rect></clipPath></defs><rect x="10" y="10" width="580" height="316" fill="#ffffff"></rect><rect x="10" y="10" width="580" height="316" stroke="#026fc1" stroke-width="2" fill="none"></rect><g class="highcharts-series-group"><g class="highcharts-series highcharts-series-0" transform="translate(10,10) scale(1 1)"><path fill="#50B432" d="M 289.9758647253621 41.50000245785438 A 118.5 118.5 0 0 1 350.8027313919297 58.288260976026706 L 290 160 A 0 0 0 0 0 290 160 Z" stroke="#FFFFFF" stroke-width="1" stroke-linejoin="round" transform="translate(0,0)"></path><path fill="#ED561B" d="M 350.90441271263853 58.349114553150116 A 118.5 118.5 0 0 1 358.63996714099636 63.40390840782979 L 290 160 A 0 0 0 0 0 290 160 Z" stroke="#FFFFFF" stroke-width="1" stroke-linejoin="round" transform="translate(0,0)"></path><path fill="#DDDF00" d="M 358.7365288965085 63.47259666157255 A 118.5 118.5 0 0 1 380.1741317623223 83.11777864218978 L 290 160 A 0 0 0 0 0 290 160 Z" stroke="#FFFFFF" stroke-width="1" stroke-linejoin="round" transform="translate(0,0)"></path><path fill="#24CBE5" d="M 380.2509688838043 83.20799120003055 A 118.5 118.5 0 0 1 347.7244777263441 263.48978051585965 L 290 160 A 0 0 0 0 0 290 160 Z" stroke="#FFFFFF" stroke-width="1" stroke-linejoin="round" transform="translate(0,0)"></path><path fill="#64E572" d="M 347.6209591008401 263.5474532390793 A 118.5 118.5 0 0 1 273.9097222497295 277.4025253643172 L 290 160 A 0 0 0 0 0 290 160 Z" stroke="#FFFFFF" stroke-width="1" stroke-linejoin="round" transform="translate(0,0)"></path><path fill="#FF9655" d="M 273.7923277890705 277.3863763879909 A 118.5 118.5 0 0 1 181.34919569469815 207.29960595830585 L 290 160 A 0 0 0 0 0 290 160 Z" stroke="#FFFFFF" stroke-width="1" stroke-linejoin="round" transform="translate(0,0)"></path><path fill="#FFF263" d="M 181.30195042202075 207.190931522308 A 118.5 118.5 0 0 1 173.8057725991324 183.26266362039127 L 290 160 A 0 0 0 0 0 290 160 Z" stroke="#FFFFFF" stroke-width="1" stroke-linejoin="round" transform="translate(0,0)"></path><path fill="#6AF9C4" d="M 173.782568036498 183.14645778102528 A 118.5 118.5 0 0 1 289.83540587733853 41.50011430902228 L 290 160 A 0 0 0 0 0 290 160 Z" stroke="#FFFFFF" stroke-width="1" stroke-linejoin="round" transform="translate(0,0)"></path></g><g class="highcharts-markers highcharts-series-0" transform="translate(10,10) scale(1 1)"></g></g><g class="highcharts-data-labels highcharts-series-0" transform="translate(10,10) scale(1 1)" opacity="1"><path fill="none" d="M 334.60498611525287 11 C 329.60498611525287 11 327.47138416965004 24.08897619318249 324.53768149444613 34.690551010798096 L 321.60397881924223 45.2921258284137" stroke="#50B432" stroke-width="1"></path><path fill="none" d="M 371.1314652426971 32 C 366.1314652426971 32 366.9065514168809 41.917550845533654 360.8853979251678 51.1232941957054 L 354.8642444334547 60.32903754587714" stroke="#ED561B" stroke-width="1"></path><path fill="none" d="M 398.48912986396203 53 C 393.48912986396203 53 384.97426438012525 55.96189539375335 377.5385568485852 64.06808151950932 L 370.1028493170451 72.17426764526529" stroke="#DDDF00" stroke-width="1"></path><path fill="none" d="M 441.1283911322916 185.93375314040745 C 436.1283911322916 185.93375314040745 428.25615457297624 184.50971256718688 417.4318293039176 182.55165677900854 L 406.60750403485895 180.5936009908302" stroke="#24CBE5" stroke-width="1"></path><path fill="none" d="M 322.3763648198914 305.4547349326092 C 317.3763648198914 305.4547349326092 315.90154381949316 297.5918535894384 313.87366494394564 286.78039174257844 L 311.8457860683981 275.9689298957185" stroke="#64E572" stroke-width="1"></path><path fill="none" d="M 195.19958431955268 277.77144771084386 C 200.19958431955268 277.77144771084386 205.03731715082256 271.39992190823943 211.68919979381866 262.6390739296584 L 218.34108243681476 253.8782259510774" stroke="#FF9655" stroke-width="1"></path><path fill="none" d="M 143.26252934627377 203.802814952146 C 148.26252934627377 203.802814952146 155.89821800101993 201.41613131836039 166.39728990129595 198.13444132190511 L 176.89636180157197 194.85275132544984" stroke="#FFF263" stroke-width="1"></path><path fill="none" d="M 170.19549108237635 65.3077777511154 C 175.19549108237635 65.3077777511154 181.3802457715413 70.38210622243577 189.88428346914304 77.3593078705013 L 198.3883211667448 84.33650951856683" stroke="#6AF9C4" stroke-width="1"></path><g style="cursor:pointer;" transform="translate(340,1)"><text x="5" style="font-size:10px;font-weight:bold;font-family:'arial', sans-serif;color:#000;text-shadow:none;fill:#000;text-rendering:geometricprecision;" y="15"><tspan>Spanish: 8.6%</tspan></text></g><g style="cursor:pointer;" transform="translate(376,22)"><text x="5" style="font-size:10px;font-weight:bold;font-family:'arial', sans-serif;color:#000;text-shadow:none;fill:#000;text-rendering:geometricprecision;" y="15"><tspan>Japanese: 1.3%</tspan></text></g><g style="cursor:pointer;" transform="translate(403,43)"><text x="5" style="font-size:10px;font-weight:bold;font-family:'arial', sans-serif;color:#000;text-shadow:none;fill:#000;text-rendering:geometricprecision;" y="15"><tspan>French: 3.9%</tspan></text></g><g style="cursor:pointer;" transform="translate(446,176)"><text x="5" style="font-size:10px;font-weight:bold;font-family:'arial', sans-serif;color:#000;text-shadow:none;fill:#000;text-rendering:geometricprecision;" y="15"><tspan>Dutch: 28.1%</tspan></text></g><g style="cursor:pointer;" transform="translate(327,295)"><text x="5" style="font-size:10px;font-weight:bold;font-family:'arial', sans-serif;color:#000;text-shadow:none;fill:#000;text-rendering:geometricprecision;" y="15"><tspan>Hungarian: 10.3%</tspan></text></g><g style="cursor:pointer;" transform="translate(107,268)"><text x="5" style="font-size:10px;font-weight:bold;font-family:'arial', sans-serif;color:#000;text-shadow:none;fill:#000;text-rendering:geometricprecision;" y="15"><tspan>Russian: 16.3%</tspan></text></g><g style="cursor:pointer;" transform="translate(59,194)"><text x="5" style="font-size:10px;font-weight:bold;font-family:'arial', sans-serif;color:#000;text-shadow:none;fill:#000;text-rendering:geometricprecision;" y="15"><tspan>Swedish: 3.4%</tspan></text></g><g style="cursor:pointer;" transform="translate(83,55)"><text x="5" style="font-size:10px;font-weight:bold;font-family:'arial', sans-serif;color:#000;text-shadow:none;fill:#000;text-rendering:geometricprecision;" y="15"><tspan>German: 28.1%</tspan></text></g></g><g class="highcharts-legend" transform="translate(40,338)"><g><g><g class="highcharts-legend-item" transform="translate(8,3)"><text x="21" style="color:#333;font-size:9pt;font-weight:normal;cursor:pointer;font-family:'lucida grande','lucida sans unicode',arial,helvetica,sans-serif;text-transform:none;fill:#333;" text-anchor="start" y="15">Spanish</text><rect x="0" y="4" width="16" height="12" fill="#50B432"></rect></g><g class="highcharts-legend-item" transform="translate(94.125,3)"><text x="21" y="15" style="color:#333;font-size:9pt;font-weight:normal;cursor:pointer;font-family:'lucida grande','lucida sans unicode',arial,helvetica,sans-serif;text-transform:none;fill:#333;" text-anchor="start">Japanese</text><rect x="0" y="4" width="16" height="12" fill="#ED561B"></rect></g><g class="highcharts-legend-item" transform="translate(188.9140625,3)"><text x="21" y="15" style="color:#333;font-size:9pt;font-weight:normal;cursor:pointer;font-family:'lucida grande','lucida sans unicode',arial,helvetica,sans-serif;text-transform:none;fill:#333;" text-anchor="start">French</text><rect x="0" y="4" width="16" height="12" fill="#DDDF00"></rect></g><g class="highcharts-legend-item" transform="translate(268.9921875,3)"><text x="21" y="15" style="color:#333;font-size:9pt;font-weight:normal;cursor:pointer;font-family:'lucida grande','lucida sans unicode',arial,helvetica,sans-serif;text-transform:none;fill:#333;" text-anchor="start">Dutch</text><rect x="0" y="4" width="16" height="12" fill="#24CBE5"></rect></g><g class="highcharts-legend-item" transform="translate(344.5234375,3)"><text x="21" y="15" style="color:#333;font-size:9pt;font-weight:normal;cursor:pointer;font-family:'lucida grande','lucida sans unicode',arial,helvetica,sans-serif;text-transform:none;fill:#333;" text-anchor="start">Hungarian</text><rect x="0" y="4" width="16" height="12" fill="#64E572"></rect></g><g class="highcharts-legend-item" transform="translate(445.8046875,3)"><text x="21" y="15" style="color:#333;font-size:9pt;font-weight:normal;cursor:pointer;font-family:'lucida grande','lucida sans unicode',arial,helvetica,sans-serif;text-transform:none;fill:#333;" text-anchor="start">Russian</text><rect x="0" y="4" width="16" height="12" fill="#FF9655"></rect></g><g class="highcharts-legend-item" transform="translate(8,21)"><text x="21" y="15" style="color:#333;font-size:9pt;font-weight:normal;cursor:pointer;font-family:'lucida grande','lucida sans unicode',arial,helvetica,sans-serif;text-transform:none;fill:#333;" text-anchor="start">Swedish</text><rect x="0" y="4" width="16" height="12" fill="#FFF263"></rect></g><g class="highcharts-legend-item" transform="translate(95.984375,21)"><text x="21" y="15" style="color:#333;font-size:9pt;font-weight:normal;cursor:pointer;font-family:'lucida grande','lucida sans unicode',arial,helvetica,sans-serif;text-transform:none;fill:#333;" text-anchor="start">German</text><rect x="0" y="4" width="16" height="12" fill="#6AF9C4"></rect></g></g></g></g><g class="highcharts-tooltip" display="none" style="cursor:default;padding:0;pointer-events:none;white-space:nowrap;" transform="translate(0,0)"><path fill="none" d="M 3.5 0.5 L 13.5 0.5 C 16.5 0.5 16.5 0.5 16.5 3.5 L 16.5 13.5 C 16.5 16.5 16.5 16.5 13.5 16.5 L 3.5 16.5 C 0.5 16.5 0.5 16.5 0.5 13.5 L 0.5 3.5 C 0.5 0.5 0.5 0.5 3.5 0.5"  stroke="black" stroke-opacity="0.049999999999999996" stroke-width="5" transform="translate(1, 1)"></path><path fill="none" d="M 3.5 0.5 L 13.5 0.5 C 16.5 0.5 16.5 0.5 16.5 3.5 L 16.5 13.5 C 16.5 16.5 16.5 16.5 13.5 16.5 L 3.5 16.5 C 0.5 16.5 0.5 16.5 0.5 13.5 L 0.5 3.5 C 0.5 0.5 0.5 0.5 3.5 0.5"  stroke="black" stroke-opacity="0.09999999999999999" stroke-width="3" transform="translate(1, 1)"></path><path fill="none" d="M 3.5 0.5 L 13.5 0.5 C 16.5 0.5 16.5 0.5 16.5 3.5 L 16.5 13.5 C 16.5 16.5 16.5 16.5 13.5 16.5 L 3.5 16.5 C 0.5 16.5 0.5 16.5 0.5 13.5 L 0.5 3.5 C 0.5 0.5 0.5 0.5 3.5 0.5"  stroke="black" stroke-opacity="0.15" stroke-width="1" transform="translate(1, 1)"></path><path fill="rgb(249, 249, 249)" fill-opacity=" .85" d="M 3.5 0.5 L 13.5 0.5 C 16.5 0.5 16.5 0.5 16.5 3.5 L 16.5 13.5 C 16.5 16.5 16.5 16.5 13.5 16.5 L 3.5 16.5 C 0.5 16.5 0.5 16.5 0.5 13.5 L 0.5 3.5 C 0.5 0.5 0.5 0.5 3.5 0.5"></path><text x="8" style="font-size:12px;color:#000000;fill:#000000;" y="20"></text></g></svg>